<?xml version="1.0" encoding="UTF-8"?>
<svg version="1.1" xmlns="http://www.w3.org/2000/svg" width="1024" height="1024">
<path d="M0 0 C5.28 0 10.56 0 16 0 C16 0.66 16 1.32 16 2 C17.98 2 19.96 2 22 2 C22 2.66 22 3.32 22 4 C23.32 4 24.64 4 26 4 C26 4.66 26 5.32 26 6 C26.66 6 27.32 6 28 6 C28 6.66 28 7.32 28 8 C28.66 8 29.32 8 30 8 C30 8.66 30 9.32 30 10 C30.66 10 31.32 10 32 10 C32 10.66 32 11.32 32 12 C32.66 12 33.32 12 34 12 C34 12.66 34 13.32 34 14 C34.66 14 35.32 14 36 14 C36 15.32 36 16.64 36 18 C36.66 18 37.32 18 38 18 C38 19.32 38 20.64 38 22 C38.66 22 39.32 22 40 22 C40 28.6 40 35.2 40 42 C39.34 42 38.68 42 38 42 C38 43.98 38 45.96 38 48 C37.34 48 36.68 48 36 48 C36 49.32 36 50.64 36 52 C35.34 52 34.68 52 34 52 C34 52.66 34 53.32 34 54 C33.34 54 32.68 54 32 54 C32 54.66 32 55.32 32 56 C31.34 56 30.68 56 30 56 C30 56.66 30 57.32 30 58 C29.34 58 28.68 58 28 58 C28 58.66 28 59.32 28 60 C26.68 60 25.36 60 24 60 C24 60.66 24 61.32 24 62 C24.66 62 25.32 62 26 62 C26 63.32 26 64.64 26 66 C26.66 66 27.32 66 28 66 C28 67.32 28 68.64 28 70 C28.66 70 29.32 70 30 70 C30 71.32 30 72.64 30 74 C30.66 74 31.32 74 32 74 C32 75.32 32 76.64 32 78 C32.66 78 33.32 78 34 78 C34 79.32 34 80.64 34 82 C34.66 82 35.32 82 36 82 C36 83.32 36 84.64 36 86 C36.66 86 37.32 86 38 86 C38 86.66 38 87.32 38 88 C38.66 88 39.32 88 40 88 C40 89.32 40 90.64 40 92 C40.66 92 41.32 92 42 92 C42 93.32 42 94.64 42 96 C42.66 96 43.32 96 44 96 C44 97.32 44 98.64 44 100 C44.66 100 45.32 100 46 100 C46 101.32 46 102.64 46 104 C46.66 104 47.32 104 48 104 C48 105.32 48 106.64 48 108 C48.66 108 49.32 108 50 108 C50 109.32 50 110.64 50 112 C50.66 112 51.32 112 52 112 C52 113.32 52 114.64 52 116 C52.66 116 53.32 116 54 116 C54 117.32 54 118.64 54 120 C54.66 120 55.32 120 56 120 C56 121.32 56 122.64 56 124 C56.66 124 57.32 124 58 124 C58 124.66 58 125.32 58 126 C58.66 126 59.32 126 60 126 C60 127.32 60 128.64 60 130 C60.66 130 61.32 130 62 130 C62 131.32 62 132.64 62 134 C62.66 134 63.32 134 64 134 C64 135.32 64 136.64 64 138 C64.66 138 65.32 138 66 138 C66 139.32 66 140.64 66 142 C66.66 142 67.32 142 68 142 C68 143.32 68 144.64 68 146 C68.66 146 69.32 146 70 146 C70 147.32 70 148.64 70 150 C70.66 150 71.32 150 72 150 C72 151.32 72 152.64 72 154 C72.66 154 73.32 154 74 154 C74 155.32 74 156.64 74 158 C74.66 158 75.32 158 76 158 C76 159.32 76 160.64 76 162 C76.66 162 77.32 162 78 162 C78 162.66 78 163.32 78 164 C78.66 164 79.32 164 80 164 C80 165.32 80 166.64 80 168 C80.66 168 81.32 168 82 168 C82 169.32 82 170.64 82 172 C82.66 172 83.32 172 84 172 C84 173.32 84 174.64 84 176 C84.66 176 85.32 176 86 176 C86 177.32 86 178.64 86 180 C86.66 180 87.32 180 88 180 C88 181.32 88 182.64 88 184 C88.66 184 89.32 184 90 184 C90 185.32 90 186.64 90 188 C90.66 188 91.32 188 92 188 C92 189.32 92 190.64 92 192 C92.66 192 93.32 192 94 192 C94 193.32 94 194.64 94 196 C94.66 196 95.32 196 96 196 C96 197.32 96 198.64 96 200 C96.66 200 97.32 200 98 200 C98 200.66 98 201.32 98 202 C98.66 202 99.32 202 100 202 C100 203.32 100 204.64 100 206 C100.66 206 101.32 206 102 206 C102 207.32 102 208.64 102 210 C102.66 210 103.32 210 104 210 C104 211.32 104 212.64 104 214 C104.66 214 105.32 214 106 214 C106 215.32 106 216.64 106 218 C106.66 218 107.32 218 108 218 C108 219.32 108 220.64 108 222 C108.66 222 109.32 222 110 222 C110 223.32 110 224.64 110 226 C110.66 226 111.32 226 112 226 C112 227.32 112 228.64 112 230 C112.66 230 113.32 230 114 230 C114 231.32 114 232.64 114 234 C114.66 234 115.32 234 116 234 C116 235.32 116 236.64 116 238 C116.66 238 117.32 238 118 238 C118 238.66 118 239.32 118 240 C118.66 240 119.32 240 120 240 C120 241.32 120 242.64 120 244 C120.66 244 121.32 244 122 244 C122 245.32 122 246.64 122 248 C122.66 248 123.32 248 124 248 C124 249.32 124 250.64 124 252 C124.66 252 125.32 252 126 252 C126 253.32 126 254.64 126 256 C126.66 256 127.32 256 128 256 C128 257.32 128 258.64 128 260 C128.66 260 129.32 260 130 260 C130 261.32 130 262.64 130 264 C130.66 264 131.32 264 132 264 C132 265.32 132 266.64 132 268 C132.66 268 133.32 268 134 268 C134 269.32 134 270.64 134 272 C134.66 272 135.32 272 136 272 C136 273.32 136 274.64 136 276 C136.66 276 137.32 276 138 276 C138 276.66 138 277.32 138 278 C138.66 278 139.32 278 140 278 C140 279.32 140 280.64 140 282 C140.66 282 141.32 282 142 282 C142 283.32 142 284.64 142 286 C142.66 286 143.32 286 144 286 C144 287.32 144 288.64 144 290 C144.66 290 145.32 290 146 290 C146 291.32 146 292.64 146 294 C146.66 294 147.32 294 148 294 C148 295.32 148 296.64 148 298 C148.66 298 149.32 298 150 298 C150 299.32 150 300.64 150 302 C150.66 302 151.32 302 152 302 C152 303.32 152 304.64 152 306 C152.66 306 153.32 306 154 306 C154 307.32 154 308.64 154 310 C154.66 310 155.32 310 156 310 C156 311.32 156 312.64 156 314 C156.66 314 157.32 314 158 314 C158 314.66 158 315.32 158 316 C158.66 316 159.32 316 160 316 C160 317.32 160 318.64 160 320 C160.66 320 161.32 320 162 320 C162 321.32 162 322.64 162 324 C162.66 324 163.32 324 164 324 C164 325.32 164 326.64 164 328 C164.66 328 165.32 328 166 328 C166 329.32 166 330.64 166 332 C166.66 332 167.32 332 168 332 C168 333.32 168 334.64 168 336 C168.66 336 169.32 336 170 336 C170 337.32 170 338.64 170 340 C170.66 340 171.32 340 172 340 C172 341.32 172 342.64 172 344 C172.66 344 173.32 344 174 344 C174 345.32 174 346.64 174 348 C174.66 348 175.32 348 176 348 C176 349.32 176 350.64 176 352 C176.66 352 177.32 352 178 352 C178 352.66 178 353.32 178 354 C178.66 354 179.32 354 180 354 C180 355.32 180 356.64 180 358 C180.66 358 181.32 358 182 358 C182 359.32 182 360.64 182 362 C182.66 362 183.32 362 184 362 C184 363.32 184 364.64 184 366 C184.66 366 185.32 366 186 366 C186 367.32 186 368.64 186 370 C186.66 370 187.32 370 188 370 C188 371.32 188 372.64 188 374 C188.66 374 189.32 374 190 374 C190 375.32 190 376.64 190 378 C190.66 378 191.32 378 192 378 C192 379.32 192 380.64 192 382 C192.66 382 193.32 382 194 382 C194 383.32 194 384.64 194 386 C194.66 386 195.32 386 196 386 C196 387.32 196 388.64 196 390 C196.66 390 197.32 390 198 390 C198 390.66 198 391.32 198 392 C198.66 392 199.32 392 200 392 C200 393.32 200 394.64 200 396 C200.66 396 201.32 396 202 396 C202 397.32 202 398.64 202 400 C202.66 400 203.32 400 204 400 C204 401.32 204 402.64 204 404 C204.66 404 205.32 404 206 404 C206 405.32 206 406.64 206 408 C206.66 408 207.32 408 208 408 C208 409.32 208 410.64 208 412 C208.66 412 209.32 412 210 412 C210 413.32 210 414.64 210 416 C210.66 416 211.32 416 212 416 C212 417.32 212 418.64 212 420 C212.66 420 213.32 420 214 420 C214 421.32 214 422.64 214 424 C213.34 424 212.68 424 212 424 C212 425.98 212 427.96 212 430 C211.34 430 210.68 430 210 430 C210 431.98 210 433.96 210 436 C209.34 436 208.68 436 208 436 C208 437.32 208 438.64 208 440 C207.34 440 206.68 440 206 440 C206 441.98 206 443.96 206 446 C205.34 446 204.68 446 204 446 C204 447.98 204 449.96 204 452 C203.34 452 202.68 452 202 452 C202 453.98 202 455.96 202 458 C201.34 458 200.68 458 200 458 C200 459.32 200 460.64 200 462 C199.34 462 198.68 462 198 462 C198 463.98 198 465.96 198 468 C197.34 468 196.68 468 196 468 C196 469.98 196 471.96 196 474 C195.34 474 194.68 474 194 474 C194 475.98 194 477.96 194 480 C193.34 480 192.68 480 192 480 C192 481.98 192 483.96 192 486 C191.34 486 190.68 486 190 486 C190 487.98 190 489.96 190 492 C189.34 492 188.68 492 188 492 C188 493.98 188 495.96 188 498 C187.34 498 186.68 498 186 498 C186 499.32 186 500.64 186 502 C185.34 502 184.68 502 184 502 C184 503.98 184 505.96 184 508 C183.34 508 182.68 508 182 508 C182 509.98 182 511.96 182 514 C181.34 514 180.68 514 180 514 C180 516.64 180 519.28 180 522 C179.34 522 178.68 522 178 522 C178 523.98 178 525.96 178 528 C177.34 528 176.68 528 176 528 C176 529.98 176 531.96 176 534 C175.34 534 174.68 534 174 534 C174 535.98 174 537.96 174 540 C173.34 540 172.68 540 172 540 C172 541.98 172 543.96 172 546 C171.34 546 170.68 546 170 546 C170 547.98 170 549.96 170 552 C169.34 552 168.68 552 168 552 C168 553.98 168 555.96 168 558 C167.34 558 166.68 558 166 558 C166 560.64 166 563.28 166 566 C165.34 566 164.68 566 164 566 C164 567.98 164 569.96 164 572 C163.34 572 162.68 572 162 572 C162 574.64 162 577.28 162 580 C161.34 580 160.68 580 160 580 C160 581.98 160 583.96 160 586 C159.34 586 158.68 586 158 586 C158 587.98 158 589.96 158 592 C157.34 592 156.68 592 156 592 C156 594.64 156 597.28 156 600 C155.34 600 154.68 600 154 600 C154 602.64 154 605.28 154 608 C153.34 608 152.68 608 152 608 C152 609.98 152 611.96 152 614 C151.34 614 150.68 614 150 614 C150 616.64 150 619.28 150 622 C149.34 622 148.68 622 148 622 C148 624.64 148 627.28 148 630 C147.34 630 146.68 630 146 630 C146 632.64 146 635.28 146 638 C145.34 638 144.68 638 144 638 C144 641.3 144 644.6 144 648 C143.34 648 142.68 648 142 648 C142 650.64 142 653.28 142 656 C141.34 656 140.68 656 140 656 C140 659.3 140 662.6 140 666 C139.34 666 138.68 666 138 666 C138 669.3 138 672.6 138 676 C137.34 676 136.68 676 136 676 C136 679.3 136 682.6 136 686 C135.34 686 134.68 686 134 686 C134 690.62 134 695.24 134 700 C133.34 700 132.68 700 132 700 C132 705.94 132 711.88 132 718 C131.34 718 130.68 718 130 718 C130 729.22 130 740.44 130 752 C130.66 752 131.32 752 132 752 C132 755.3 132 758.6 132 762 C132.66 762 133.32 762 134 762 C134 763.98 134 765.96 134 768 C84.5 768 35 768 -16 768 C-16 768.66 -16 769.32 -16 770 C-25.9 770 -35.8 770 -46 770 C-46 769.34 -46 768.68 -46 768 C-67.78 768 -89.56 768 -112 768 C-112 764.7 -112 761.4 -112 758 C-111.34 758 -110.68 758 -110 758 C-110 745.46 -110 732.92 -110 720 C-110.66 720 -111.32 720 -112 720 C-112 714.06 -112 708.12 -112 702 C-112.66 702 -113.32 702 -114 702 C-114 697.38 -114 692.76 -114 688 C-114.66 688 -115.32 688 -116 688 C-116 684.7 -116 681.4 -116 678 C-116.66 678 -117.32 678 -118 678 C-118 674.7 -118 671.4 -118 668 C-118.66 668 -119.32 668 -120 668 C-120 664.7 -120 661.4 -120 658 C-120.66 658 -121.32 658 -122 658 C-122 655.36 -122 652.72 -122 650 C-122.66 650 -123.32 650 -124 650 C-124 647.36 -124 644.72 -124 642 C-124.66 642 -125.32 642 -126 642 C-126 639.36 -126 636.72 -126 634 C-126.66 634 -127.32 634 -128 634 C-128 631.36 -128 628.72 -128 626 C-128.66 626 -129.32 626 -130 626 C-130 623.36 -130 620.72 -130 618 C-130.66 618 -131.32 618 -132 618 C-132 615.36 -132 612.72 -132 610 C-132.66 610 -133.32 610 -134 610 C-134 608.02 -134 606.04 -134 604 C-134.66 604 -135.32 604 -136 604 C-136 602.02 -136 600.04 -136 598 C-136.66 598 -137.32 598 -138 598 C-138 595.36 -138 592.72 -138 590 C-138.66 590 -139.32 590 -140 590 C-140 588.02 -140 586.04 -140 584 C-140.66 584 -141.32 584 -142 584 C-142 582.02 -142 580.04 -142 578 C-142.66 578 -143.32 578 -144 578 C-144 575.36 -144 572.72 -144 570 C-144.66 570 -145.32 570 -146 570 C-146 568.02 -146 566.04 -146 564 C-146.66 564 -147.32 564 -148 564 C-148 562.02 -148 560.04 -148 558 C-148.66 558 -149.32 558 -150 558 C-150 556.02 -150 554.04 -150 552 C-150.66 552 -151.32 552 -152 552 C-152 550.02 -152 548.04 -152 546 C-152.66 546 -153.32 546 -154 546 C-154 544.02 -154 542.04 -154 540 C-154.66 540 -155.32 540 -156 540 C-156 538.02 -156 536.04 -156 534 C-156.66 534 -157.32 534 -158 534 C-158 532.02 -158 530.04 -158 528 C-158.66 528 -159.32 528 -160 528 C-160 526.68 -160 525.36 -160 524 C-160.66 524 -161.32 524 -162 524 C-162 522.02 -162 520.04 -162 518 C-162.66 518 -163.32 518 -164 518 C-164 516.02 -164 514.04 -164 512 C-164.66 512 -165.32 512 -166 512 C-166 510.02 -166 508.04 -166 506 C-166.66 506 -167.32 506 -168 506 C-168 504.02 -168 502.04 -168 500 C-168.66 500 -169.32 500 -170 500 C-170 498.68 -170 497.36 -170 496 C-170.66 496 -171.32 496 -172 496 C-172 494.02 -172 492.04 -172 490 C-172.66 490 -173.32 490 -174 490 C-174 488.02 -174 486.04 -174 484 C-174.66 484 -175.32 484 -176 484 C-176 482.68 -176 481.36 -176 480 C-176.66 480 -177.32 480 -178 480 C-178 478.02 -178 476.04 -178 474 C-178.66 474 -179.32 474 -180 474 C-180 472.68 -180 471.36 -180 470 C-180.66 470 -181.32 470 -182 470 C-182 468.02 -182 466.04 -182 464 C-182.66 464 -183.32 464 -184 464 C-184 462.02 -184 460.04 -184 458 C-184.66 458 -185.32 458 -186 458 C-186 456.68 -186 455.36 -186 454 C-186.66 454 -187.32 454 -188 454 C-188 452.02 -188 450.04 -188 448 C-188.66 448 -189.32 448 -190 448 C-190 446.68 -190 445.36 -190 444 C-190.66 444 -191.32 444 -192 444 C-192 442.02 -192 440.04 -192 438 C-192.66 438 -193.32 438 -194 438 C-194 436.68 -194 435.36 -194 434 C-194.66 434 -195.32 434 -196 434 C-196 432.68 -196 431.36 -196 430 C-196.66 430 -197.32 430 -198 430 C-198 428.02 -198 426.04 -198 424 C-197.34 424 -196.68 424 -196 424 C-196 422.68 -196 421.36 -196 420 C-195.34 420 -194.68 420 -194 420 C-194 418.68 -194 417.36 -194 416 C-193.34 416 -192.68 416 -192 416 C-192 414.68 -192 413.36 -192 412 C-191.34 412 -190.68 412 -190 412 C-190 411.34 -190 410.68 -190 410 C-189.34 410 -188.68 410 -188 410 C-188 408.68 -188 407.36 -188 406 C-187.34 406 -186.68 406 -186 406 C-186 404.68 -186 403.36 -186 402 C-185.34 402 -184.68 402 -184 402 C-184 400.68 -184 399.36 -184 398 C-183.34 398 -182.68 398 -182 398 C-182 396.68 -182 395.36 -182 394 C-181.34 394 -180.68 394 -180 394 C-180 392.68 -180 391.36 -180 390 C-179.34 390 -178.68 390 -178 390 C-178 388.68 -178 387.36 -178 386 C-177.34 386 -176.68 386 -176 386 C-176 384.68 -176 383.36 -176 382 C-175.34 382 -174.68 382 -174 382 C-174 380.68 -174 379.36 -174 378 C-173.34 378 -172.68 378 -172 378 C-172 376.68 -172 375.36 -172 374 C-171.34 374 -170.68 374 -170 374 C-170 372.68 -170 371.36 -170 370 C-169.34 370 -168.68 370 -168 370 C-168 368.68 -168 367.36 -168 366 C-167.34 366 -166.68 366 -166 366 C-166 365.34 -166 364.68 -166 364 C-165.34 364 -164.68 364 -164 364 C-164 362.68 -164 361.36 -164 360 C-163.34 360 -162.68 360 -162 360 C-162 358.68 -162 357.36 -162 356 C-161.34 356 -160.68 356 -160 356 C-160 354.68 -160 353.36 -160 352 C-159.34 352 -158.68 352 -158 352 C-158 350.68 -158 349.36 -158 348 C-157.34 348 -156.68 348 -156 348 C-156 346.68 -156 345.36 -156 344 C-155.34 344 -154.68 344 -154 344 C-154 342.68 -154 341.36 -154 340 C-153.34 340 -152.68 340 -152 340 C-152 338.68 -152 337.36 -152 336 C-151.34 336 -150.68 336 -150 336 C-150 334.68 -150 333.36 -150 332 C-149.34 332 -148.68 332 -148 332 C-148 330.68 -148 329.36 -148 328 C-147.34 328 -146.68 328 -146 328 C-146 326.68 -146 325.36 -146 324 C-145.34 324 -144.68 324 -144 324 C-144 322.68 -144 321.36 -144 320 C-143.34 320 -142.68 320 -142 320 C-142 319.34 -142 318.68 -142 318 C-141.34 318 -140.68 318 -140 318 C-140 316.68 -140 315.36 -140 314 C-139.34 314 -138.68 314 -138 314 C-138 312.68 -138 311.36 -138 310 C-137.34 310 -136.68 310 -136 310 C-136 308.68 -136 307.36 -136 306 C-135.34 306 -134.68 306 -134 306 C-134 304.68 -134 303.36 -134 302 C-133.34 302 -132.68 302 -132 302 C-132 300.68 -132 299.36 -132 298 C-131.34 298 -130.68 298 -130 298 C-130 296.68 -130 295.36 -130 294 C-129.34 294 -128.68 294 -128 294 C-128 292.68 -128 291.36 -128 290 C-127.34 290 -126.68 290 -126 290 C-126 288.68 -126 287.36 -126 286 C-125.34 286 -124.68 286 -124 286 C-124 284.68 -124 283.36 -124 282 C-123.34 282 -122.68 282 -122 282 C-122 280.68 -122 279.36 -122 278 C-121.34 278 -120.68 278 -120 278 C-120 276.68 -120 275.36 -120 274 C-119.34 274 -118.68 274 -118 274 C-118 273.34 -118 272.68 -118 272 C-117.34 272 -116.68 272 -116 272 C-116 270.68 -116 269.36 -116 268 C-115.34 268 -114.68 268 -114 268 C-114 266.68 -114 265.36 -114 264 C-113.34 264 -112.68 264 -112 264 C-112 262.68 -112 261.36 -112 260 C-111.34 260 -110.68 260 -110 260 C-110 258.68 -110 257.36 -110 256 C-109.34 256 -108.68 256 -108 256 C-108 254.68 -108 253.36 -108 252 C-107.34 252 -106.68 252 -106 252 C-106 250.68 -106 249.36 -106 248 C-105.34 248 -104.68 248 -104 248 C-104 246.68 -104 245.36 -104 244 C-103.34 244 -102.68 244 -102 244 C-102 242.68 -102 241.36 -102 240 C-101.34 240 -100.68 240 -100 240 C-100 238.68 -100 237.36 -100 236 C-99.34 236 -98.68 236 -98 236 C-98 234.68 -98 233.36 -98 232 C-97.34 232 -96.68 232 -96 232 C-96 230.68 -96 229.36 -96 228 C-95.34 228 -94.68 228 -94 228 C-94 227.34 -94 226.68 -94 226 C-93.34 226 -92.68 226 -92 226 C-92 224.68 -92 223.36 -92 222 C-91.34 222 -90.68 222 -90 222 C-90 220.68 -90 219.36 -90 218 C-89.34 218 -88.68 218 -88 218 C-88 216.68 -88 215.36 -88 214 C-87.34 214 -86.68 214 -86 214 C-86 212.68 -86 211.36 -86 210 C-85.34 210 -84.68 210 -84 210 C-84 208.68 -84 207.36 -84 206 C-83.34 206 -82.68 206 -82 206 C-82 204.68 -82 203.36 -82 202 C-81.34 202 -80.68 202 -80 202 C-80 200.68 -80 199.36 -80 198 C-79.34 198 -78.68 198 -78 198 C-78 196.68 -78 195.36 -78 194 C-77.34 194 -76.68 194 -76 194 C-76 192.68 -76 191.36 -76 190 C-75.34 190 -74.68 190 -74 190 C-74 188.68 -74 187.36 -74 186 C-73.34 186 -72.68 186 -72 186 C-72 184.68 -72 183.36 -72 182 C-71.34 182 -70.68 182 -70 182 C-70 181.34 -70 180.68 -70 180 C-69.34 180 -68.68 180 -68 180 C-68 178.68 -68 177.36 -68 176 C-67.34 176 -66.68 176 -66 176 C-66 174.68 -66 173.36 -66 172 C-65.34 172 -64.68 172 -64 172 C-64 170.68 -64 169.36 -64 168 C-63.34 168 -62.68 168 -62 168 C-62 166.68 -62 165.36 -62 164 C-61.34 164 -60.68 164 -60 164 C-60 162.68 -60 161.36 -60 160 C-59.34 160 -58.68 160 -58 160 C-58 158.68 -58 157.36 -58 156 C-57.34 156 -56.68 156 -56 156 C-56 154.68 -56 153.36 -56 152 C-55.34 152 -54.68 152 -54 152 C-54 150.68 -54 149.36 -54 148 C-53.34 148 -52.68 148 -52 148 C-52 146.68 -52 145.36 -52 144 C-51.34 144 -50.68 144 -50 144 C-50 142.68 -50 141.36 -50 140 C-49.34 140 -48.68 140 -48 140 C-48 138.68 -48 137.36 -48 136 C-47.34 136 -46.68 136 -46 136 C-46 135.34 -46 134.68 -46 134 C-45.34 134 -44.68 134 -44 134 C-44 132.68 -44 131.36 -44 130 C-43.34 130 -42.68 130 -42 130 C-42 128.68 -42 127.36 -42 126 C-41.34 126 -40.68 126 -40 126 C-40 124.68 -40 123.36 -40 122 C-39.34 122 -38.68 122 -38 122 C-38 120.68 -38 119.36 -38 118 C-37.34 118 -36.68 118 -36 118 C-36 116.68 -36 115.36 -36 114 C-35.34 114 -34.68 114 -34 114 C-34 112.68 -34 111.36 -34 110 C-33.34 110 -32.68 110 -32 110 C-32 108.68 -32 107.36 -32 106 C-31.34 106 -30.68 106 -30 106 C-30 104.68 -30 103.36 -30 102 C-29.34 102 -28.68 102 -28 102 C-28 100.68 -28 99.36 -28 98 C-27.34 98 -26.68 98 -26 98 C-26 96.68 -26 95.36 -26 94 C-25.34 94 -24.68 94 -24 94 C-24 93.34 -24 92.68 -24 92 C-23.34 92 -22.68 92 -22 92 C-22 90.68 -22 89.36 -22 88 C-21.34 88 -20.68 88 -20 88 C-20 86.68 -20 85.36 -20 84 C-19.34 84 -18.68 84 -18 84 C-18 82.68 -18 81.36 -18 80 C-17.34 80 -16.68 80 -16 80 C-16 78.68 -16 77.36 -16 76 C-15.34 76 -14.68 76 -14 76 C-14 74.68 -14 73.36 -14 72 C-13.34 72 -12.68 72 -12 72 C-12 70.68 -12 69.36 -12 68 C-11.34 68 -10.68 68 -10 68 C-10 66.68 -10 65.36 -10 64 C-9.34 64 -8.68 64 -8 64 C-8 62.68 -8 61.36 -8 60 C-9.32 60 -10.64 60 -12 60 C-12 59.34 -12 58.68 -12 58 C-12.66 58 -13.32 58 -14 58 C-14 57.34 -14 56.68 -14 56 C-14.66 56 -15.32 56 -16 56 C-16 55.34 -16 54.68 -16 54 C-16.66 54 -17.32 54 -18 54 C-18 53.34 -18 52.68 -18 52 C-18.66 52 -19.32 52 -20 52 C-20 50.68 -20 49.36 -20 48 C-20.66 48 -21.32 48 -22 48 C-22 46.68 -22 45.36 -22 44 C-22.66 44 -23.32 44 -24 44 C-24 36.74 -24 29.48 -24 22 C-23.34 22 -22.68 22 -22 22 C-22 20.68 -22 19.36 -22 18 C-21.34 18 -20.68 18 -20 18 C-20 16.68 -20 15.36 -20 14 C-19.34 14 -18.68 14 -18 14 C-18 13.34 -18 12.68 -18 12 C-17.34 12 -16.68 12 -16 12 C-16 11.34 -16 10.68 -16 10 C-15.34 10 -14.68 10 -14 10 C-14 9.34 -14 8.68 -14 8 C-13.34 8 -12.68 8 -12 8 C-12 7.34 -12 6.68 -12 6 C-11.34 6 -10.68 6 -10 6 C-10 5.34 -10 4.68 -10 4 C-8.68 4 -7.36 4 -6 4 C-6 3.34 -6 2.68 -6 2 C-4.02 2 -2.04 2 0 2 C0 1.34 0 0.68 0 0 Z M-2 64 C-2 150.46 -2 236.92 -2 326 C-3.98 326 -5.96 326 -8 326 C-8 326.66 -8 327.32 -8 328 C-10.64 328 -13.28 328 -16 328 C-16 328.66 -16 329.32 -16 330 C-17.98 330 -19.96 330 -22 330 C-22 330.66 -22 331.32 -22 332 C-23.32 332 -24.64 332 -26 332 C-26 332.66 -26 333.32 -26 334 C-27.32 334 -28.64 334 -30 334 C-30 334.66 -30 335.32 -30 336 C-31.32 336 -32.64 336 -34 336 C-34 336.66 -34 337.32 -34 338 C-34.66 338 -35.32 338 -36 338 C-36 338.66 -36 339.32 -36 340 C-37.32 340 -38.64 340 -40 340 C-40 340.66 -40 341.32 -40 342 C-40.66 342 -41.32 342 -42 342 C-42 342.66 -42 343.32 -42 344 C-42.66 344 -43.32 344 -44 344 C-44 344.66 -44 345.32 -44 346 C-44.66 346 -45.32 346 -46 346 C-46 346.66 -46 347.32 -46 348 C-46.66 348 -47.32 348 -48 348 C-48 348.66 -48 349.32 -48 350 C-48.66 350 -49.32 350 -50 350 C-50 350.66 -50 351.32 -50 352 C-50.66 352 -51.32 352 -52 352 C-52 352.66 -52 353.32 -52 354 C-52.66 354 -53.32 354 -54 354 C-54 354.66 -54 355.32 -54 356 C-54.66 356 -55.32 356 -56 356 C-56 356.66 -56 357.32 -56 358 C-56.66 358 -57.32 358 -58 358 C-58 359.32 -58 360.64 -58 362 C-58.66 362 -59.32 362 -60 362 C-60 362.66 -60 363.32 -60 364 C-60.66 364 -61.32 364 -62 364 C-62 365.32 -62 366.64 -62 368 C-62.66 368 -63.32 368 -64 368 C-64 369.32 -64 370.64 -64 372 C-64.66 372 -65.32 372 -66 372 C-66 373.32 -66 374.64 -66 376 C-66.66 376 -67.32 376 -68 376 C-68 377.98 -68 379.96 -68 382 C-68.66 382 -69.32 382 -70 382 C-70 384.64 -70 387.28 -70 390 C-70.66 390 -71.32 390 -72 390 C-72 399.9 -72 409.8 -72 420 C-71.34 420 -70.68 420 -70 420 C-70 422.64 -70 425.28 -70 428 C-69.34 428 -68.68 428 -68 428 C-68 429.98 -68 431.96 -68 434 C-67.34 434 -66.68 434 -66 434 C-66 435.32 -66 436.64 -66 438 C-65.34 438 -64.68 438 -64 438 C-64 439.32 -64 440.64 -64 442 C-63.34 442 -62.68 442 -62 442 C-62 443.32 -62 444.64 -62 446 C-61.34 446 -60.68 446 -60 446 C-60 447.32 -60 448.64 -60 450 C-59.34 450 -58.68 450 -58 450 C-58 450.66 -58 451.32 -58 452 C-57.34 452 -56.68 452 -56 452 C-56 452.66 -56 453.32 -56 454 C-55.34 454 -54.68 454 -54 454 C-54 455.32 -54 456.64 -54 458 C-53.34 458 -52.68 458 -52 458 C-52 458.66 -52 459.32 -52 460 C-51.34 460 -50.68 460 -50 460 C-50 460.66 -50 461.32 -50 462 C-49.34 462 -48.68 462 -48 462 C-48 462.66 -48 463.32 -48 464 C-47.34 464 -46.68 464 -46 464 C-46 464.66 -46 465.32 -46 466 C-44.68 466 -43.36 466 -42 466 C-42 466.66 -42 467.32 -42 468 C-41.34 468 -40.68 468 -40 468 C-40 468.66 -40 469.32 -40 470 C-39.34 470 -38.68 470 -38 470 C-38 470.66 -38 471.32 -38 472 C-36.68 472 -35.36 472 -34 472 C-34 472.66 -34 473.32 -34 474 C-33.34 474 -32.68 474 -32 474 C-32 474.66 -32 475.32 -32 476 C-30.68 476 -29.36 476 -28 476 C-28 476.66 -28 477.32 -28 478 C-26.68 478 -25.36 478 -24 478 C-24 478.66 -24 479.32 -24 480 C-22.02 480 -20.04 480 -18 480 C-18 480.66 -18 481.32 -18 482 C-16.02 482 -14.04 482 -12 482 C-12 482.66 -12 483.32 -12 484 C-8.04 484 -4.08 484 0 484 C0 484.66 0 485.32 0 486 C5.28 486 10.56 486 16 486 C16 485.34 16 484.68 16 484 C19.96 484 23.92 484 28 484 C28 483.34 28 482.68 28 482 C29.98 482 31.96 482 34 482 C34 481.34 34 480.68 34 480 C35.98 480 37.96 480 40 480 C40 479.34 40 478.68 40 478 C41.32 478 42.64 478 44 478 C44 477.34 44 476.68 44 476 C45.32 476 46.64 476 48 476 C48 475.34 48 474.68 48 474 C48.66 474 49.32 474 50 474 C50 473.34 50 472.68 50 472 C51.32 472 52.64 472 54 472 C54 471.34 54 470.68 54 470 C54.66 470 55.32 470 56 470 C56 469.34 56 468.68 56 468 C56.66 468 57.32 468 58 468 C58 467.34 58 466.68 58 466 C59.32 466 60.64 466 62 466 C62 465.34 62 464.68 62 464 C62.66 464 63.32 464 64 464 C64 463.34 64 462.68 64 462 C64.66 462 65.32 462 66 462 C66 461.34 66 460.68 66 460 C66.66 460 67.32 460 68 460 C68 458.68 68 457.36 68 456 C68.66 456 69.32 456 70 456 C70 455.34 70 454.68 70 454 C70.66 454 71.32 454 72 454 C72 453.34 72 452.68 72 452 C72.66 452 73.32 452 74 452 C74 451.34 74 450.68 74 450 C74.66 450 75.32 450 76 450 C76 448.68 76 447.36 76 446 C76.66 446 77.32 446 78 446 C78 444.68 78 443.36 78 442 C78.66 442 79.32 442 80 442 C80 440.68 80 439.36 80 438 C80.66 438 81.32 438 82 438 C82 436.68 82 435.36 82 434 C82.66 434 83.32 434 84 434 C84 432.02 84 430.04 84 428 C84.66 428 85.32 428 86 428 C86 425.36 86 422.72 86 420 C86.66 420 87.32 420 88 420 C88 410.1 88 400.2 88 390 C87.34 390 86.68 390 86 390 C86 387.36 86 384.72 86 382 C85.34 382 84.68 382 84 382 C84 380.02 84 378.04 84 376 C83.34 376 82.68 376 82 376 C82 374.68 82 373.36 82 372 C81.34 372 80.68 372 80 372 C80 370.68 80 369.36 80 368 C79.34 368 78.68 368 78 368 C78 366.68 78 365.36 78 364 C77.34 364 76.68 364 76 364 C76 363.34 76 362.68 76 362 C75.34 362 74.68 362 74 362 C74 360.68 74 359.36 74 358 C73.34 358 72.68 358 72 358 C72 357.34 72 356.68 72 356 C71.34 356 70.68 356 70 356 C70 355.34 70 354.68 70 354 C69.34 354 68.68 354 68 354 C68 353.34 68 352.68 68 352 C67.34 352 66.68 352 66 352 C66 351.34 66 350.68 66 350 C65.34 350 64.68 350 64 350 C64 349.34 64 348.68 64 348 C63.34 348 62.68 348 62 348 C62 347.34 62 346.68 62 346 C61.34 346 60.68 346 60 346 C60 345.34 60 344.68 60 344 C59.34 344 58.68 344 58 344 C58 343.34 58 342.68 58 342 C57.34 342 56.68 342 56 342 C56 341.34 56 340.68 56 340 C54.68 340 53.36 340 52 340 C52 339.34 52 338.68 52 338 C51.34 338 50.68 338 50 338 C50 337.34 50 336.68 50 336 C48.68 336 47.36 336 46 336 C46 335.34 46 334.68 46 334 C44.68 334 43.36 334 42 334 C42 333.34 42 332.68 42 332 C40.68 332 39.36 332 38 332 C38 331.34 38 330.68 38 330 C36.02 330 34.04 330 32 330 C32 329.34 32 328.68 32 328 C29.36 328 26.72 328 24 328 C24 327.34 24 326.68 24 326 C22.02 326 20.04 326 18 326 C18 239.54 18 153.08 18 64 C16.68 64 15.36 64 14 64 C14 64.66 14 65.32 14 66 C10.04 66 6.08 66 2 66 C2 65.34 2 64.68 2 64 C0.68 64 -0.64 64 -2 64 Z " fill="#000000" transform="translate(504,24)"/>
<path d="M0 0 C84.48 0 168.96 0 256 0 C256 30.36 256 60.72 256 92 C171.52 92 87.04 92 0 92 C0 61.64 0 31.28 0 0 Z " fill="#000000" transform="translate(384,908)"/>
<path d="M0 0 C99 0 198 0 300 0 C300 23.1 300 46.2 300 70 C201 70 102 70 0 70 C0 46.9 0 23.8 0 0 Z " fill="#000000" transform="translate(362,816)"/>
</svg>
